<svg  viewBox="0 0 20 20" xmlns="http://www.w3.org/2000/svg">
    <path d="M10 0C10.1917 0 10.3833 0.0392773 10.5583 0.113904L18.4042 3.25216C19.3208 3.61744 20.0041 4.46976 20 5.49882C19.9791 9.39513 18.2792 16.524 11.1 19.7643C10.4042 20.0786 9.59583 20.0786 8.9 19.7643C1.72085 16.524 0.0208522 9.39513 1.8952e-05 5.49882C-0.00414771 4.46976 0.679184 3.61744 1.59585 3.25216L9.44583 0.113904C9.61667 0.0392773 9.80833 0 10 0Z" fill="black"/>
    <path d="M9.88885 0.666626C10.0656 0.666626 10.2424 0.703285 10.4038 0.772937L17.6393 3.70198C18.4847 4.0429 19.1149 4.8384 19.1111 5.79886C19.0918 9.43541 17.5241 16.089 10.9033 19.1133C10.2616 19.4066 9.51612 19.4066 8.87441 19.1133C2.25363 16.089 0.685856 9.43541 0.666643 5.79886C0.662801 4.8384 1.29298 4.0429 2.13835 3.70198L9.37778 0.772937C9.53533 0.703285 9.71209 0.666626 9.88885 0.666626Z" fill="white"/>
    <path d="M9.88893 1.33337C10.0529 1.33337 10.2169 1.36698 10.3666 1.43083L17.0791 4.11578C17.8634 4.42829 18.448 5.1575 18.4445 6.03792C18.4266 9.37143 16.9722 15.4705 10.83 18.2429C10.2347 18.5117 9.54314 18.5117 8.94782 18.2429C2.80566 15.4705 1.35121 9.37143 1.33339 6.03792C1.32983 5.1575 1.91445 4.42829 2.69871 4.11578L9.41481 1.43083C9.56097 1.36698 9.72495 1.33337 9.88893 1.33337Z" fill="black"/>
    <path d="M14.6796 5.81592C14.9586 6.16309 14.9586 6.72689 14.6796 7.07405L8.96597 14.1841C8.68698 14.5312 8.23391 14.5312 7.95492 14.1841L5.0981 10.6291C4.81911 10.2819 4.81911 9.71809 5.0981 9.37092C5.37708 9.02375 5.83016 9.02375 6.10914 9.37092L8.46156 12.2955L13.6708 5.81592C13.9498 5.46875 14.4029 5.46875 14.6818 5.81592H14.6796Z" fill="white"/>
</svg>
